# xmcd CD database file
#
# Track frame offsets:
#	150
#	21001
#	41666
#	57143
#	76819
#	94285
#	111081
#	128880
#	141330
#	159714
#	173018
#	187958
#	204589
#	219257
#	237818
#	248693
#	262540
#	287298
#	299570
#	320114
#	329494
#
# Disc length: 4556 seconds
#
# Revision: 3
# Processed by: cddbd v1.4PL0 Copyright (c) Steve Scherf et al.
# Submitted via: CDex 1.50beta9
#
DISCID=2911ca15
DTITLE=Vera Spinarova - Nejvetsi Hity
DYEAR=1900
DGENRE=Pop
TTITLE0=Jednoho dne se vratis
TTITLE1=Fernando
TTITLE2=Hej, lasko, necekej
TTITLE3=Ja mam rada boogie
TTITLE4=Bila Jawa
TTITLE5=Mame Maj
TTITLE6=Slunecne pobrezi
TTITLE7=Grandhotel u tri stun
TTITLE8=Zustane lasky zar
TTITLE9=Ukolebavka pro mou lasku
TTITLE10=Holubi pirko
TTITLE11=Byt sluncem na tvych vickach
TTITLE12=Valentino
TTITLE13=Meteor lasky
TTITLE14=Vzpominam
TTITLE15=Uz bys mela spat
TTITLE16=Uz se stmiva
TTITLE17=Zazpivej jak ja
TTITLE18=Pisen tvou mi tenkrat hral
TTITLE19=To mame mladez
TTITLE20=Ten, kdo nemiloval
EXTD=
EXTT0=
EXTT1=
EXTT2=
EXTT3=
EXTT4=
EXTT5=
EXTT6=
EXTT7=
EXTT8=
EXTT9=
EXTT10=
EXTT11=
EXTT12=
EXTT13=
EXTT14=
EXTT15=
EXTT16=
EXTT17=
EXTT18=
EXTT19=
EXTT20=
PLAYORDER=
